<?xml version="1.0" standalone="no"?>
<!DOCTYPE svg PUBLIC "-//W3C//DTD SVG 20010904//EN"
 "http://www.w3.org/TR/2001/REC-SVG-20010904/DTD/svg10.dtd">
<svg version="1.0" xmlns="http://www.w3.org/2000/svg"
 width="1698.000000pt" height="1698.000000pt" viewBox="0 0 1698.000000 1698.000000"
 preserveAspectRatio="xMidYMid meet">
<metadata>
Created by potrace 1.14, written by Peter Selinger 2001-2017
</metadata>
<g transform="translate(0.000000,1698.000000) scale(0.100000,-0.100000)"
fill="#000000" stroke="none">
<path d="M12823 16966 c-218 -53 -383 -262 -383 -485 0 -111 45 -240 109 -313
17 -20 31 -40 31 -44 0 -13 -1781 -1790 -1807 -1803 -41 -21 -88 -11 -213 45
-823 368 -1704 580 -2635 635 -253 15 -828 6 -1065 -16 -1376 -127 -2647 -606
-3755 -1413 -616 -449 -1208 -1041 -1657 -1657 -583 -801 -1000 -1700 -1233
-2659 -132 -541 -193 -1031 -202 -1616 -7 -452 11 -771 68 -1180 206 -1478
857 -2868 1863 -3979 146 -161 476 -487 631 -622 1570 -1369 3606 -2018 5685
-1813 1536 151 2993 785 4182 1821 158 137 574 553 711 711 877 1006 1462
2193 1716 3478 143 719 179 1484 105 2209 -81 799 -287 1578 -608 2295 -56
125 -66 172 -45 213 13 26 1790 1807 1803 1807 4 0 24 -14 44 -31 20 -18 63
-45 97 -60 194 -91 413 -53 566 100 156 157 193 377 94 576 -32 66 -131 167
-1872 1906 -1726 1724 -1842 1837 -1899 1862 -108 47 -224 59 -331 33z m247
-222 c49 -22 254 -223 1852 -1822 2000 -2000 1850 -1839 1850 -1981 0 -217
-220 -357 -418 -267 -54 24 -223 191 -1856 1824 -2000 2000 -1850 1839 -1850
1981 0 80 21 137 72 194 89 102 220 128 350 71z m1290 -2389 l1625 -1625 -917
-917 c-983 -984 -950 -947 -964 -1065 -8 -66 8 -126 67 -253 108 -234 243
-596 324 -867 474 -1583 406 -3261 -192 -4778 -937 -2375 -3066 -4109 -5568
-4534 -861 -146 -1754 -136 -2615 30 -2016 389 -3770 1610 -4848 3376 -1186
1943 -1389 4361 -543 6474 796 1990 2440 3547 4466 4232 1637 554 3451 499
5055 -153 86 -35 196 -82 245 -104 126 -59 187 -75 253 -67 119 14 79 -22
1062 961 503 503 917 915 920 915 3 0 736 -731 1630 -1625z"/>
<path d="M14850 12989 c-210 -95 -212 -377 -5 -475 166 -79 364 50 365 236 0
140 -120 260 -260 260 -34 0 -72 -8 -100 -21z m179 -126 c85 -63 75 -186 -20
-236 -92 -49 -208 33 -195 137 12 104 133 159 215 99z"/>
<path d="M13558 12697 c-187 -65 -304 -219 -316 -414 -15 -253 177 -465 435
-481 253 -15 465 177 481 435 11 197 -109 381 -296 454 -88 34 -217 37 -304 6z
m275 -126 c65 -28 141 -102 174 -170 36 -74 38 -200 5 -274 -30 -66 -104 -142
-171 -174 -47 -23 -69 -27 -141 -27 -72 0 -94 4 -141 27 -67 32 -141 108 -171
174 -33 74 -31 200 5 274 44 91 132 163 232 190 47 13 155 2 208 -20z"/>
<path d="M12933 11301 c-65 -24 -97 -46 -152 -106 -67 -73 -85 -123 -85 -235
0 -77 4 -104 22 -143 30 -66 114 -151 181 -184 49 -25 68 -28 151 -28 83 0
102 3 151 28 67 33 151 118 181 184 18 38 22 67 23 143 0 84 -3 102 -28 151
-33 68 -118 151 -184 181 -69 30 -191 35 -260 9z m223 -129 c84 -43 128 -117
128 -212 0 -137 -96 -234 -234 -234 -138 0 -234 97 -234 234 0 112 62 195 174
231 38 13 123 3 166 -19z"/>
<path d="M2100 10589 c-470 -57 -845 -429 -910 -900 -27 -197 34 -433 160
-619 55 -80 177 -220 193 -220 7 0 27 13 46 29 l34 28 -65 85 c-168 220 -232
397 -208 580 31 246 169 414 390 474 89 24 301 24 430 0 407 -78 933 -336
1138 -560 204 -222 216 -477 28 -654 -66 -63 -152 -107 -275 -140 -92 -25
-108 -26 -360 -27 l-264 -2 -15 -37 c-8 -20 -13 -38 -11 -40 4 -4 827 -326
832 -326 2 0 12 24 22 54 l18 53 -41 57 -41 58 108 106 c155 154 240 303 298
520 23 86 26 116 26 262 0 180 -10 235 -72 395 -128 333 -454 613 -876 754
-195 65 -414 92 -585 70z"/>
<path d="M12865 9960 c-135 -28 -241 -87 -340 -185 -80 -81 -125 -152 -163
-257 -23 -65 -26 -88 -26 -208 0 -120 3 -143 26 -208 38 -105 83 -176 163
-257 81 -80 152 -125 257 -163 65 -23 88 -26 208 -26 120 0 143 3 208 26 105
38 176 83 257 163 80 81 125 152 163 257 23 65 26 88 26 208 0 120 -3 143 -26
208 -38 105 -83 176 -163 257 -129 129 -258 185 -440 191 -60 2 -128 -1 -150
-6z m238 -125 c272 -58 460 -328 419 -602 -44 -293 -321 -499 -609 -455 -293
44 -499 321 -455 610 47 307 342 512 645 447z"/>
<path d="M4560 8426 c-297 -66 -494 -249 -567 -526 -21 -82 -23 -256 -4 -325
27 -97 90 -202 166 -278 84 -84 203 -160 223 -144 39 31 34 44 -37 96 -127 94
-197 186 -225 296 -20 76 -20 147 0 215 56 188 241 280 566 280 341 0 656 -85
792 -215 57 -55 87 -114 93 -184 10 -112 -38 -203 -150 -281 -94 -67 -200
-106 -409 -154 -23 -5 -28 -12 -28 -36 0 -36 -14 -33 305 -60 312 -26 291 -27
299 13 6 29 2 36 -33 67 l-40 35 38 63 c65 106 93 207 99 349 6 152 -12 239
-73 362 -111 221 -338 376 -624 426 -100 18 -313 18 -391 1z"/>
<path d="M1545 8344 c-235 -36 -388 -107 -526 -244 -279 -279 -292 -786 -27
-1075 138 -150 317 -231 571 -257 204 -21 420 21 587 113 88 49 209 167 259
252 76 129 119 326 107 486 -9 123 -31 204 -83 311 -38 79 -59 108 -132 181
-75 75 -102 94 -192 138 -137 67 -239 91 -404 96 -71 2 -143 1 -160 -1z m380
-525 c362 -31 526 -131 501 -304 -15 -99 -117 -167 -308 -208 -93 -19 -134
-21 -418 -21 -278 0 -329 3 -431 22 -196 36 -313 93 -354 173 -21 39 -19 113
4 158 49 95 203 156 456 180 130 12 411 12 550 0z"/>
<path d="M3368 7013 c-16 -4 -18 -17 -18 -96 0 -51 -5 -108 -10 -128 -11 -41
-77 -108 -125 -127 -58 -23 -1981 -505 -2021 -506 -70 -2 -117 39 -154 134 -7
19 -14 36 -15 37 -1 1 -18 -2 -39 -8 -28 -8 -36 -14 -32 -27 3 -9 51 -201 107
-427 56 -225 105 -413 108 -417 4 -4 20 -4 36 0 29 8 30 11 37 86 8 88 29 131
75 158 17 10 541 147 1164 304 624 157 1140 292 1148 299 12 12 -2 66 -96 367
-116 371 -114 365 -165 351z"/>
<path d="M14033 7000 c-35 -14 -51 -50 -62 -135 -11 -90 -4 -115 42 -149 40
-29 93 -25 129 11 23 23 31 43 38 94 15 104 13 118 -24 155 -35 35 -75 43
-123 24z"/>
<path d="M4745 6840 c-136 -28 -265 -98 -360 -194 -102 -104 -155 -227 -155
-361 0 -134 66 -289 165 -389 70 -71 137 -110 226 -131 140 -33 275 -12 439
67 260 126 375 348 310 602 -51 202 -193 353 -375 401 -63 16 -183 18 -250 5z
m484 -274 c67 -35 80 -132 26 -202 -53 -69 -195 -157 -392 -241 -169 -73 -278
-103 -370 -103 -85 0 -125 16 -148 60 -56 108 57 229 340 365 273 131 449 170
544 121z"/>
<path d="M13910 6272 c-19 -20 -31 -46 -39 -88 -7 -32 -37 -160 -67 -283 -235
-960 -719 -1892 -1348 -2599 -120 -135 -136 -158 -136 -195 0 -40 58 -97 96
-97 43 1 68 19 144 102 635 707 1110 1574 1384 2528 64 220 128 498 130 558 1
37 -4 48 -32 73 -44 39 -93 40 -132 1z"/>
<path d="M5593 5789 c-184 -31 -376 -186 -473 -382 -129 -263 -41 -541 210
-661 61 -29 72 -31 175 -30 98 0 118 4 185 30 72 29 75 31 72 59 -2 17 -5 31
-6 33 -2 1 -25 -7 -52 -19 -68 -29 -158 -36 -209 -15 -141 59 -184 159 -136
315 31 100 104 205 231 331 137 137 207 182 291 188 51 4 60 2 83 -21 46 -46
34 -88 -38 -124 -91 -45 -127 -93 -129 -170 -1 -85 81 -163 173 -163 101 0
190 109 190 232 0 158 -191 352 -387 393 -75 16 -103 17 -180 4z"/>
<path d="M2395 5490 c-191 -20 -379 -104 -554 -244 -183 -147 -301 -385 -301
-606 0 -345 257 -688 577 -771 228 -59 500 -1 748 159 89 57 223 187 275 267
98 151 139 336 109 501 -23 130 -77 261 -154 369 -56 79 -177 193 -246 232
-135 77 -297 110 -454 93z m607 -383 c118 -69 118 -214 -2 -349 -90 -103 -362
-281 -621 -408 -352 -172 -569 -190 -646 -54 -80 140 53 322 388 529 276 171
474 260 684 309 11 3 50 3 87 2 49 -2 78 -10 110 -29z"/>
<path d="M6563 5236 c-150 -37 -271 -140 -346 -296 -126 -263 -99 -519 72
-691 166 -166 428 -206 633 -97 167 89 298 333 301 563 2 158 -42 275 -142
373 -128 126 -348 189 -518 148z m294 -86 c91 -55 93 -215 6 -515 -86 -296
-193 -465 -294 -465 -35 0 -85 34 -106 72 -28 52 -24 224 9 358 111 447 244
637 385 550z"/>
<path d="M7950 5170 c-137 -19 -240 -59 -327 -128 -97 -77 -129 -172 -87 -258
51 -104 188 -111 279 -15 42 46 42 111 -2 203 l-32 67 30 25 c39 33 88 42 126
22 53 -27 73 -74 103 -236 l18 -100 -31 -26 c-16 -14 -95 -64 -175 -111 -236
-140 -277 -188 -276 -333 0 -130 50 -222 148 -272 129 -66 323 1 407 140 12
20 24 39 25 41 2 2 22 -15 44 -37 56 -56 112 -76 197 -70 164 12 243 106 243
287 0 84 -8 105 -36 99 -17 -3 -20 -15 -24 -94 -6 -117 -30 -146 -91 -114 -35
20 -49 69 -84 309 -60 407 -72 451 -147 528 -64 66 -171 91 -308 73z m154
-690 c14 -96 26 -186 26 -200 0 -62 -80 -130 -137 -115 -60 15 -103 114 -103
238 0 76 14 116 56 166 35 42 117 102 125 93 3 -4 18 -86 33 -182z"/>
<path d="M3522 4277 l-22 -24 34 -57 c19 -32 38 -71 41 -87 10 -42 -12 -122
-45 -167 -37 -52 -735 -790 -774 -820 -45 -34 -120 -27 -182 16 -24 18 -48 32
-53 32 -4 0 -18 -11 -30 -24 l-23 -24 79 -75 c43 -41 202 -192 353 -335 l275
-260 27 25 27 26 -22 29 c-89 117 -107 151 -107 202 0 32 7 61 18 77 38 59
708 760 732 767 39 11 151 8 190 -6 19 -7 46 -21 59 -31 l23 -18 -54 -31
c-107 -60 -168 -162 -153 -253 8 -48 54 -119 96 -151 119 -89 297 -44 404 102
122 167 74 362 -111 449 -86 41 -211 52 -324 31 -29 -6 -55 -8 -58 -5 -3 2 30
40 72 83 43 45 76 87 76 98 0 14 -79 86 -259 237 -142 119 -261 217 -263 217
-3 0 -14 -11 -26 -23z"/>
<path d="M5346 3669 c-9 -47 -9 -47 37 -70 81 -41 176 -110 196 -143 12 -19
21 -50 21 -73 0 -33 -504 -1723 -541 -1816 -16 -39 -72 -85 -113 -93 -19 -3
-84 1 -143 9 -59 8 -112 11 -116 7 -4 -4 -10 -22 -13 -41 l-6 -34 922 -279
c506 -153 924 -275 928 -271 4 3 64 163 133 353 l127 347 -27 12 c-14 7 -31
12 -38 13 -6 0 -42 -37 -79 -82 -90 -112 -276 -294 -348 -343 l-59 -40 -106 1
c-91 1 -123 6 -231 38 -69 20 -158 52 -199 72 -65 32 -75 41 -93 81 -16 37
-19 56 -13 102 8 63 516 1747 544 1800 30 60 62 76 149 76 42 0 105 -4 139 -8
l61 -8 12 36 c7 20 10 39 7 42 -7 7 -1118 343 -1133 343 -6 0 -14 -14 -18 -31z"/>
<path d="M8531 3529 c-179 -88 -327 -161 -329 -164 -3 -2 1 -18 8 -36 11 -26
17 -30 39 -25 14 4 63 9 108 13 76 5 85 4 125 -20 25 -14 57 -43 72 -65 45
-66 768 -1791 884 -2112 18 -51 22 -55 53 -58 l34 -3 44 141 c24 77 49 140 55
140 6 0 40 -9 75 -20 128 -40 261 -37 411 12 198 63 342 182 423 348 58 117
76 187 84 315 16 282 -119 610 -342 831 -78 78 -106 99 -186 137 -137 66 -231
80 -361 53 -177 -38 -306 -154 -370 -333 -13 -35 -25 -63 -28 -63 -3 0 -104
237 -225 526 -121 289 -227 529 -235 534 -10 5 -121 -44 -339 -151z m1202
-827 c241 -129 542 -874 463 -1144 -29 -100 -88 -148 -183 -148 -62 0 -123 31
-187 94 -49 50 -58 68 -250 525 l-200 473 13 47 c17 66 53 116 107 147 85 50
152 52 237 6z"/>
<path d="M7717 2520 c-78 -14 -186 -49 -267 -89 -89 -43 -199 -142 -229 -206
-25 -54 -28 -149 -5 -203 17 -42 67 -97 104 -117 106 -55 272 -5 341 102 28
43 30 54 26 108 -2 33 -19 102 -37 154 l-33 95 33 27 c70 59 178 59 233 1 54
-57 76 -152 92 -399 l6 -101 -68 -41 c-37 -22 -142 -73 -233 -114 -91 -41
-198 -91 -239 -112 -98 -49 -180 -128 -217 -208 -27 -59 -29 -69 -29 -197 0
-131 1 -137 32 -202 76 -161 234 -244 417 -219 148 21 255 81 346 196 l52 65
40 -54 c79 -106 169 -149 313 -149 101 0 182 23 242 68 87 67 143 213 143 377
l0 88 -39 0 -38 0 -5 -99 c-8 -161 -58 -234 -137 -201 -20 8 -42 30 -58 58
-25 43 -27 52 -34 261 -17 440 -31 678 -44 750 -18 92 -61 185 -110 240 -47
52 -159 107 -245 121 -75 11 -283 11 -353 0z m288 -1046 l14 -299 -27 -45
c-40 -65 -82 -90 -153 -90 -71 0 -106 25 -139 102 -35 80 -40 260 -12 355 32
103 101 175 247 255 27 15 51 26 52 24 2 -2 10 -138 18 -302z"/>
<path d="M15485 16441 c-168 -78 -164 -314 7 -385 134 -56 288 48 288 194 0
150 -160 253 -295 191z m146 -130 c20 -20 29 -39 29 -61 0 -22 -9 -41 -29 -61
-20 -20 -39 -29 -61 -29 -22 0 -41 9 -61 29 -20 20 -29 39 -29 61 0 22 9 41
29 61 20 20 39 29 61 29 22 0 41 -9 61 -29z"/>
<path d="M15790 15409 c-210 -95 -212 -377 -5 -475 166 -79 364 50 365 236 0
140 -120 260 -260 260 -34 0 -72 -8 -100 -21z m179 -126 c85 -63 75 -186 -20
-236 -92 -49 -208 33 -195 137 12 104 133 159 215 99z"/>
</g>
</svg>
