<svg xmlns="http://www.w3.org/2000/svg" viewBox="0 0 60500 7500"><path d="M13093 5167c-286 827-884 1513-1833 1513-1235 0-2223-1006-2223-2722s975-2855 2314-2855c507 0 865 172 1150 351l169-289h221l26 1997h-182c-306-1186-780-1810-1352-1810-761 0-1138 983-1138 2473 0 1630 494 2418 1248 2418 670 0 1079-437 1424-1186l176 109Zm3737-429c0 1084-552 1942-1638 1942-878 0-1599-725-1599-1919 0-1115 631-1903 1625-1903s1612 788 1612 1880Zm-1046-8c0-819-78-1685-559-1685-507 0-579 920-579 1669 0 936 111 1763 572 1763s566-803 566-1747Zm4400 851c-201 608-683 1100-1267 1100-1040 0-1528-842-1528-1934 0-983 559-1888 1573-1888 741 0 1092 390 1092 913 0 312-169 562-500 562-312 0-501-226-501-554 0-148 117-382 143-499-20-117-71-226-228-226-312 0-553 491-553 1630 0 889 312 1513 767 1513s676-242 858-725l143 109Zm3659-843c0 1084-553 1942-1638 1942-878 0-1599-725-1599-1919 0-1115 630-1903 1625-1903s1612 788 1612 1880Zm-1047-8c0-819-78-1685-559-1685-507 0-579 920-579 1669 0 936 110 1763 572 1763s566-803 566-1747Zm4895 796c-13 655-208 1139-793 1139-416 0-617-218-748-507h-19c-215 273-423 523-930 523-442 0-787-374-787-889 0-663 312-866 637-1006 390-172 917-351 1079-499v-452c0-265 0-788-371-788-162 0-267 86-319 148 20 125 117 351 117 593 0 172-195 445-533 445s-468-281-468-538c0-484 696-835 1254-835 696 0 1268 133 1268 1170 0 710-39 1544-39 1802 0 125 72 367 234 367 195 0 247-320 254-671h162Zm-1554-991c-448 211-734 382-734 1038 0 460 143 616 325 616 221 0 286-117 383-296l26-1357Zm7547 632c-286 827-884 1513-1833 1513-1235 0-2223-1006-2223-2722s975-2855 2314-2855c507 0 865 172 1151 351l169-289h221l26 1997h-182c-306-1186-780-1810-1352-1810-761 0-1138 983-1138 2473 0 1630 494 2418 1248 2418 670 0 1079-437 1424-1186l175 109Zm3738-429c0 1084-553 1942-1638 1942-877 0-1599-725-1599-1919 0-1115 631-1903 1625-1903s1612 788 1612 1880Zm-1046-8c0-819-78-1685-559-1685-507 0-579 920-579 1669 0 936 111 1763 572 1763s566-803 566-1747Zm3340 1834h-1827V6400c104-8 189-23 273-62 124-55 169-172 169-343v-4400c0-203-72-367-176-452-78-62-331-140-448-148V839l1515-94 45 55v5156c0 172 52 289 169 351 91 47 162 78 279 94v164Zm3692-1826c0 1084-553 1942-1638 1942-878 0-1599-725-1599-1919 0-1115 631-1903 1625-1903s1612 788 1612 1880Zm-1046-8c0-819-78-1685-559-1685-507 0-579 920-579 1669 0 936 111 1763 572 1763s566-803 566-1747Zm4374-1146c0 367-202 671-501 671-279 0-481-187-481-507 0-140 58-281 78-374-280 8-462 265-514 374v2215c0 172 65 289 175 343 104 55 332 86 429 94v164h-1983V6400c104-8 188-23 273-62 123-55 162-172 162-343V3686c0-148-72-328-169-413-71-62-215-109-325-117V3000l1391-94 46 55v523h13c260-406 527-608 839-608s566 281 566 710Zm6006 1295-85 1685h-3959v-179c110-16 416-62 494-101 156-78 195-218 195-390V1938c0-172-32-304-195-382-124-62-384-125-494-140v-179h2438v179c-117 16-345 55-462 101-156 62-202 211-202 382v3752c0 608 111 671 689 671 325 0 663-16 812-195 221-265 481-866 611-1248h156Zm3712 647c-13 655-208 1139-793 1139-416 0-617-218-748-507h-19c-215 273-423 523-930 523-442 0-787-374-787-889 0-663 312-866 637-1006 390-172 917-351 1079-499v-452c0-265 0-788-371-788-162 0-267 86-319 148 20 125 117 351 117 593 0 172-195 445-533 445s-468-281-468-538c0-484 696-835 1254-835 696 0 1268 133 1268 1170 0 710-39 1544-39 1802 0 125 72 367 234 367 195 0 247-320 254-671h162ZM54900 4535c-448 211-734 382-734 1038 0 460 143 616 325 616 221 0 286-117 383-296l26-1357Zm5200 242c0 1100-637 1903-1489 1903-663 0-936-304-1105-468l-403 507-117-62c20-312 39-850 39-1412V1571c0-172-72-359-176-445-78-62-305-125-416-133V837l1489-94 46 55v2551l26 8c143-195 429-499 826-499 748 0 1281 733 1281 1919Zm-1040 55c0-764-124-1513-618-1513-241 0-338 109-475 304v2278c58 242 188 577 501 577 371 0 592-647 592-1646Z" fill="#fff" stroke="#000" stroke-linecap="round" stroke-linejoin="round"/><path d="M3294 7209c-54 0-108-1-162-4C1639 7127 403 5947 256 4460c-86-867 190-1701 777-2349 580-641 1404-1008 2260-1008 109 0 221 6 330 18 332 36 653 125 955 265a91.5 91.5 0 00 104-18L5450 600l1400 1400-768 768c-27 27-35 69-18 104 164 354 258 731 278 1123 44 844-253 1646-836 2261-584 615-1370 954-2212 954Z" fill="#fff"/><path d="m5451 657 1342 1342-739 739c-39 39-50 100-27 150 162 349 254 721 275 1107 43 832-249 1624-824 2230-576 607-1351 941-2183 941-53 0-107-1-160-4-1473-77-2692-1241-2837-2708-85-855 188-1678 766-2317 573-632 1385-994 2229-994 108 0 218 6 326 17 327 35 644 123 942 261 18 8 37 12 56 12 36 0 69-14 94-39l739-739m0-106c-6 0-13 2-18 7l-780 780c-10 10-23 15-36 15-7 0-14-2-21-5a3092.4 3092.4 0 00-1303-287C1493 1059 33 2623 214 4461c149 1511 1385 2702 2915 2782 55 3 110 4 164 4 1757 0 3183-1481 3090-3258-21-405-120-789-282-1138a50.4 50.4 0 01 10-57l780-780c10-10 10-26 0-35L5468 556s-11-7-18-7Z"/><path d="M6994 2080c-44 0-85-17-117-48L5418 573a166.6 166.6 0 01 0-234c31-32 73-48 117-48s85 17 117 48l1459 1459c64 64 64 169 0 233-31 31-73 48-117 48Z" fill="#fff"/><path d="M5535 333c33 0 64 13 88 36l1459 1459c48 48 48 127 0 175-23 23-54 36-88 36s-64-13-88-36L5447 544c-23-23-36-54-36-88s13-64 36-88 54-36 88-36m0-83a205.9 205.9 0 00-146 352L6848 2060c40 40 93 60 146 60a205.9 205.9 0 00 146-352L5681 309c-40-40-93-60-146-60Z"/><path d="M5321 5970c331-353 552-813 641-1274" fill="none" stroke="#000" stroke-linecap="round" stroke-linejoin="round" stroke-width="83"/><path d="M5964 4394c-3 18-4 36-6 54-2 23 22 44 43 43 25-1 41-19 43-43 0-6 1-13 2-19v-9 4-6c2-12 2-23-4-33a43.3 43.3 0 00-26-20c-21-5-49 6-53 30Z"/><circle fill="#fff" cx="5848" cy="2196" r="165" stroke="#000" stroke-miterlimit="10" stroke-width="50"/><circle fill="#fff" cx="5555" cy="3413" r="248" stroke="#000" stroke-miterlimit="10" stroke-width="50"/><circle fill="#fff" cx="6751" cy="996" r="83" stroke="#000" stroke-miterlimit="10" stroke-width="50"/><circle fill="#fff" cx="6619" cy="550" r="62" stroke="#000" stroke-miterlimit="10" stroke-width="50"/><circle fill="#fff" cx="5580" cy="2733" r="124" stroke="#000" stroke-miterlimit="10" stroke-width="50"/><circle fill="#fff" cx="6363" cy="1994" r="83" stroke="#000" stroke-miterlimit="10" stroke-width="50"/><path d="M824 3651c-122-109-197-267-128-445 90-232 335-351 630-237 292 113 421 373 324 625-37 95-92 151-144 193l38 51-16 42-346-128 13-34c227 21 368-26 410-134 55-143-87-279-344-378-281-108-453-68-507 74-49 126-3 232 101 347l-32 26Zm69 835c-200 0-361-111-364-329-3-177 129-323 349-323 206 0 354 126 357 327 3 204-140 325-342 326Zm-2-211c151 0 311-16 310-113-2-102-172-116-310-116-173 0-326 23-324 116 1 89 150 114 325 113Zm-197 777-96-355 29-8c7 20 14 36 25 50 16 21 39 25 70 16l785-213c36-10 62-32 71-56 7-18 8-71 3-94l28-8 96 290-7 12-920 249c-31 8-49 24-54 50-4 20-5 35-2 59l-29 8Zm679 590c-173 100-367 83-476-106-89-153-45-346 146-456 178-103 368-66 469 108 102 177 37 354-138 455Zm-104-183c131-76 262-169 213-253-51-88-206-16-325 53-150 86-271 182-224 262 45 77 186 25 337-63Zm763 514c-46 50-114 64-158 23-42-38-48-91-8-135 18-19 44-30 58-40-43-37-102-27-123-19l-276 302c-21 23-26 48-17 71 9 22 39 57 52 71l-20 22-295-270 20-22c16 13 31 22 48 29 25 9 46-1 67-25l288-315c19-20 30-54 27-79-3-18-18-44-34-60l19-21 218 177v14l-65 71 2 2c89-20 154-11 201 31 48 44 49 115-5 174Zm996 637-102 295-767-220 9-32c22 3 84 12 101 9 34-5 49-28 58-58l202-702c9-30 9-56-18-79-21-18-68-44-89-52l9-32 472 136-9 32c-23-4-69-9-95-8-33 2-50 26-59 57l-192 666c-31 108-13 125 99 158 63 18 129 34 167 11 56-35 137-127 182-188l30 9Zm823 62c7 121-25 213-143 222-84 7-127-30-158-82h-4c-39 54-77 103-179 111-89 7-163-57-171-151-10-122 50-164 113-195 76-38 179-79 210-109l-7-83c-4-49-11-145-86-139-33 3-52 20-62 32 6 23 29 63 32 107 2 32-33 85-101 90-68 5-98-44-102-92-7-89 128-165 240-174 140-11 257 4 272 196 10 131 15 285 18 333 2 23 20 66 52 64 39-3 45-63 41-128l33-3Zm-327-158c-87 46-142 82-133 203 7 85 38 111 74 108 44-3 56-26 73-61l-14-250Zm1040-278c81 186 23 374-135 442-123 53-195 24-239 10l-37 118h-26c-19-56-55-148-97-243l-271-622c-13-29-40-55-65-61-19-4-66 3-87 11l-12-26 268-136 12 6 188 432h5c12-45 42-120 116-152 138-60 291 21 378 222Zm-188 93c-56-129-134-246-226-207-44 19-54 46-65 90l168 386c29 36 77 83 135 58 68-30 62-157-12-326Zm-2372-2010c-99-48-177-137-165-265 15-167 152-289 364-270 210 19 342 164 325 345-6 69-32 115-58 152l34 26-3 30-248-19 2-25c151-28 234-85 241-162 9-103-108-165-292-182-202-19-305 39-315 141-8 91 41 151 129 206l-16 23Zm273 540c-123 56-251 32-312-102-49-108-8-235 127-296 126-57 251-20 307 103 57 125 2 240-122 296Zm-58-130c93-42 186-96 159-156-29-63-137-24-222 14-106 48-193 104-167 161 25 55 123 29 230-20Zm358 554c-70 39-160 42-220-10-106-93-87-215 2-318 80-92 212-127 315-37 76 66 80 134 37 183-26 29-63 38-97 8-32-28-33-66-6-97 12-14 43-25 55-34 8-13 11-28-5-42-32-28-97-3-190 104-73 83-92 170-45 210 45 39 89 38 147 8l6 23Zm584 102c-38 129-140 211-282 169-114-33-183-148-141-290 39-133 149-203 279-165 132 39 182 156 144 286Zm-136-41c29-98 49-204-14-222-66-19-108 88-134 177-33 112-48 215 12 232 58 17 102-74 135-187Zm725 69c12 81-4 144-82 157-56 9-87-13-111-46h-3c-23 39-46 74-114 85-59 10-113-28-124-92-14-81 24-113 64-138 49-30 115-63 134-85l-9-55c-5-33-16-97-66-88a59 59 0 00-40 25c5 15 23 40 28 70 4 21-17 59-62 67-45 8-68-24-74-56-10-59 76-118 151-130 93-16 172-12 194 115 15 87 27 190 32 222 3 15 17 43 39 40 26-4 26-45 20-88l22-4Zm-228-87c-56 36-90 63-77 144 10 56 32 72 56 68 30-5 36-21 45-45l-25-167Z"/></svg>
